<svg xmlns="http://www.w3.org/2000/svg" width="500" height="100" viewBox="0 0 500 100">
  <style>
    @import url('https://fonts.googleapis.com/css2?family=Inter:wght@700&amp;family=Roboto+Slab:wght@700&amp;display=swap');
    .text-title { font-family: 'Roboto Slab', serif; font-weight: 700; fill: #1a1a1a; font-size: 34px; }
    .text-subtitle { font-family: 'Inter', sans-serif; font-weight: 700; fill: #6b7280; font-size: 10px; letter-spacing: 0.45em; text-transform: uppercase; }
    .flame { fill: rgba(204, 0, 0, 0.1); stroke: #cc0000; stroke-width: 2; stroke-linecap: round; stroke-linejoin: round; }
  </style>
  
  <!-- Flame Icon (Scaled and Positioned) -->
  <g transform="translate(15, 15) scale(2.8)">
    <path d="M8.5 14.5A2.5 2.5 0 0 0 11 12c0-1.38-.5-2-1-3-1.072-2.143-.224-4.054 2-6 .5 2.5 2 4.9 4 6.5 2 1.6 3 3.5 3 5.5a7 7 0 1 1-14 0c0-1.1.243-2.143.7-3.1 1.1 1.1 2.8 2.6 2.8 3.6Z" class="flame"/>
  </g>

  <!-- Text -->
  <text x="90" y="60" class="text-title">JUGENDFEUERWEHR</text>
  <text x="92" y="80" class="text-subtitle">Linkenheim-Hochstetten</text>
</svg>
